<svg width="400" height="400" viewBox="0 0 400 400" fill="none" xmlns="http://www.w3.org/2000/svg">
<rect width="400" height="400" fill="#F5F5F5"/>
<circle cx="200" cy="200" r="192" fill="white" stroke="black" stroke-width="16"/>
<g filter="url(#filter0_d_0_1)">
<path d="M90.6989 216V185.455H109.014V188.736H94.3977V199.057H107.642V202.338H94.3977V216H90.6989ZM114.872 216V193.091H118.392V216H114.872ZM116.662 189.273C115.976 189.273 115.384 189.039 114.887 188.572C114.4 188.104 114.156 187.543 114.156 186.886C114.156 186.23 114.4 185.668 114.887 185.201C115.384 184.734 115.976 184.5 116.662 184.5C117.348 184.5 117.934 184.734 118.422 185.201C118.919 185.668 119.167 186.23 119.167 186.886C119.167 187.543 118.919 188.104 118.422 188.572C117.934 189.039 117.348 189.273 116.662 189.273ZM128.359 185.455V216H124.839V185.455H128.359ZM144.112 216.477C142.044 216.477 140.23 215.985 138.669 215.001C137.117 214.016 135.904 212.639 135.029 210.869C134.164 209.099 133.732 207.031 133.732 204.665C133.732 202.278 134.164 200.195 135.029 198.415C135.904 196.636 137.117 195.254 138.669 194.269C140.23 193.285 142.044 192.793 144.112 192.793C146.181 192.793 147.99 193.285 149.541 194.269C151.102 195.254 152.316 196.636 153.181 198.415C154.056 200.195 154.493 202.278 154.493 204.665C154.493 207.031 154.056 209.099 153.181 210.869C152.316 212.639 151.102 214.016 149.541 215.001C147.99 215.985 146.181 216.477 144.112 216.477ZM144.112 213.315C145.683 213.315 146.976 212.913 147.99 212.107C149.004 211.302 149.755 210.243 150.242 208.93C150.73 207.618 150.973 206.196 150.973 204.665C150.973 203.134 150.73 201.707 150.242 200.384C149.755 199.062 149.004 197.993 147.99 197.178C146.976 196.362 145.683 195.955 144.112 195.955C142.541 195.955 141.249 196.362 140.235 197.178C139.22 197.993 138.47 199.062 137.982 200.384C137.495 201.707 137.252 203.134 137.252 204.665C137.252 206.196 137.495 207.618 137.982 208.93C138.47 210.243 139.22 211.302 140.235 212.107C141.249 212.913 142.541 213.315 144.112 213.315ZM176.093 198.222L172.931 199.116C172.733 198.589 172.439 198.077 172.051 197.58C171.674 197.073 171.157 196.656 170.5 196.327C169.844 195.999 169.004 195.835 167.98 195.835C166.578 195.835 165.409 196.158 164.475 196.805C163.55 197.441 163.088 198.251 163.088 199.236C163.088 200.111 163.406 200.802 164.042 201.309C164.679 201.816 165.673 202.239 167.025 202.577L170.426 203.412C172.474 203.909 174 204.67 175.005 205.694C176.009 206.708 176.511 208.016 176.511 209.616C176.511 210.929 176.133 212.102 175.377 213.136C174.632 214.17 173.588 214.986 172.245 215.582C170.903 216.179 169.342 216.477 167.562 216.477C165.225 216.477 163.292 215.97 161.76 214.956C160.229 213.942 159.26 212.46 158.852 210.511L162.193 209.676C162.511 210.909 163.113 211.834 163.998 212.45C164.892 213.067 166.061 213.375 167.502 213.375C169.143 213.375 170.446 213.027 171.41 212.331C172.385 211.625 172.872 210.78 172.872 209.795C172.872 209 172.593 208.334 172.037 207.797C171.48 207.25 170.625 206.842 169.471 206.574L165.653 205.679C163.555 205.182 162.014 204.411 161.029 203.367C160.055 202.313 159.568 200.996 159.568 199.415C159.568 198.122 159.931 196.979 160.657 195.984C161.392 194.99 162.392 194.21 163.654 193.643C164.927 193.076 166.369 192.793 167.98 192.793C170.247 192.793 172.027 193.29 173.319 194.284C174.622 195.278 175.547 196.591 176.093 198.222ZM191.116 216.477C189.048 216.477 187.233 215.985 185.672 215.001C184.121 214.016 182.908 212.639 182.033 210.869C181.168 209.099 180.736 207.031 180.736 204.665C180.736 202.278 181.168 200.195 182.033 198.415C182.908 196.636 184.121 195.254 185.672 194.269C187.233 193.285 189.048 192.793 191.116 192.793C193.184 192.793 194.994 193.285 196.545 194.269C198.106 195.254 199.319 196.636 200.184 198.415C201.059 200.195 201.497 202.278 201.497 204.665C201.497 207.031 201.059 209.099 200.184 210.869C199.319 212.639 198.106 214.016 196.545 215.001C194.994 215.985 193.184 216.477 191.116 216.477ZM191.116 213.315C192.687 213.315 193.98 212.913 194.994 212.107C196.008 211.302 196.759 210.243 197.246 208.93C197.733 207.618 197.977 206.196 197.977 204.665C197.977 203.134 197.733 201.707 197.246 200.384C196.759 199.062 196.008 197.993 194.994 197.178C193.98 196.362 192.687 195.955 191.116 195.955C189.545 195.955 188.253 196.362 187.238 197.178C186.224 197.993 185.474 199.062 184.986 200.384C184.499 201.707 184.256 203.134 184.256 204.665C184.256 206.196 184.499 207.618 184.986 208.93C185.474 210.243 186.224 211.302 187.238 212.107C188.253 212.913 189.545 213.315 191.116 213.315ZM206.87 224.591V193.091H210.271V196.73H210.688C210.947 196.332 211.305 195.825 211.762 195.209C212.229 194.582 212.896 194.026 213.761 193.538C214.636 193.041 215.819 192.793 217.31 192.793C219.239 192.793 220.94 193.275 222.411 194.239C223.883 195.204 225.031 196.571 225.857 198.341C226.682 200.111 227.094 202.199 227.094 204.605C227.094 207.031 226.682 209.134 225.857 210.914C225.031 212.684 223.888 214.056 222.426 215.031C220.964 215.995 219.279 216.477 217.37 216.477C215.898 216.477 214.72 216.234 213.835 215.746C212.95 215.249 212.269 214.687 211.792 214.061C211.315 213.425 210.947 212.898 210.688 212.48H210.39V224.591H206.87ZM210.33 204.545C210.33 206.276 210.584 207.802 211.091 209.124C211.598 210.437 212.339 211.466 213.313 212.212C214.288 212.947 215.481 213.315 216.893 213.315C218.364 213.315 219.592 212.928 220.577 212.152C221.571 211.366 222.317 210.312 222.814 208.99C223.321 207.658 223.575 206.176 223.575 204.545C223.575 202.935 223.326 201.483 222.829 200.19C222.342 198.888 221.601 197.859 220.607 197.103C219.622 196.337 218.384 195.955 216.893 195.955C215.461 195.955 214.258 196.317 213.283 197.043C212.309 197.759 211.573 198.763 211.076 200.056C210.579 201.339 210.33 202.835 210.33 204.545ZM242.069 216.477C239.862 216.477 237.957 215.99 236.357 215.016C234.766 214.031 233.538 212.659 232.673 210.899C231.817 209.129 231.39 207.071 231.39 204.724C231.39 202.378 231.817 200.31 232.673 198.52C233.538 196.72 234.741 195.318 236.282 194.314C237.833 193.3 239.643 192.793 241.711 192.793C242.904 192.793 244.082 192.991 245.246 193.389C246.409 193.787 247.468 194.433 248.423 195.328C249.377 196.213 250.138 197.386 250.705 198.848C251.271 200.31 251.555 202.109 251.555 204.247V205.739H233.896V202.696H247.975C247.975 201.403 247.717 200.25 247.2 199.236C246.692 198.222 245.967 197.421 245.022 196.835C244.087 196.248 242.984 195.955 241.711 195.955C240.309 195.955 239.096 196.303 238.072 196.999C237.058 197.685 236.277 198.58 235.73 199.683C235.183 200.787 234.91 201.97 234.91 203.233V205.261C234.91 206.991 235.208 208.458 235.805 209.661C236.411 210.854 237.251 211.764 238.325 212.391C239.399 213.007 240.647 213.315 242.069 213.315C242.994 213.315 243.829 213.186 244.575 212.928C245.33 212.659 245.982 212.261 246.528 211.734C247.075 211.197 247.498 210.531 247.796 209.736L251.197 210.69C250.839 211.844 250.237 212.858 249.392 213.733C248.547 214.598 247.503 215.274 246.26 215.761C245.017 216.239 243.62 216.477 242.069 216.477ZM239.921 189.989L243.56 183.068H247.677L243.023 189.989H239.921ZM265.56 216.477C263.651 216.477 261.965 215.995 260.504 215.031C259.042 214.056 257.898 212.684 257.073 210.914C256.248 209.134 255.835 207.031 255.835 204.605C255.835 202.199 256.248 200.111 257.073 198.341C257.898 196.571 259.047 195.204 260.518 194.239C261.99 193.275 263.69 192.793 265.619 192.793C267.111 192.793 268.289 193.041 269.154 193.538C270.029 194.026 270.695 194.582 271.153 195.209C271.62 195.825 271.983 196.332 272.241 196.73H272.54V185.455H276.06V216H272.659V212.48H272.241C271.983 212.898 271.615 213.425 271.138 214.061C270.661 214.687 269.979 215.249 269.094 215.746C268.21 216.234 267.031 216.477 265.56 216.477ZM266.037 213.315C267.449 213.315 268.642 212.947 269.616 212.212C270.591 211.466 271.332 210.437 271.839 209.124C272.346 207.802 272.599 206.276 272.599 204.545C272.599 202.835 272.351 201.339 271.854 200.056C271.357 198.763 270.621 197.759 269.646 197.043C268.672 196.317 267.469 195.955 266.037 195.955C264.545 195.955 263.303 196.337 262.308 197.103C261.324 197.859 260.583 198.888 260.086 200.19C259.599 201.483 259.355 202.935 259.355 204.545C259.355 206.176 259.604 207.658 260.101 208.99C260.608 210.312 261.354 211.366 262.338 212.152C263.332 212.928 264.565 213.315 266.037 213.315ZM282.995 216V193.091H286.515V216H282.995ZM284.785 189.273C284.099 189.273 283.507 189.039 283.01 188.572C282.523 188.104 282.279 187.543 282.279 186.886C282.279 186.23 282.523 185.668 283.01 185.201C283.507 184.734 284.099 184.5 284.785 184.5C285.471 184.5 286.058 184.734 286.545 185.201C287.042 185.668 287.29 186.23 287.29 186.886C287.29 187.543 287.042 188.104 286.545 188.572C286.058 189.039 285.471 189.273 284.785 189.273ZM299.703 216.537C298.252 216.537 296.934 216.263 295.751 215.717C294.568 215.16 293.628 214.359 292.932 213.315C292.236 212.261 291.888 210.989 291.888 209.497C291.888 208.185 292.146 207.121 292.664 206.305C293.181 205.48 293.872 204.834 294.737 204.366C295.602 203.899 296.556 203.551 297.6 203.322C298.654 203.084 299.713 202.895 300.777 202.756C302.169 202.577 303.298 202.442 304.163 202.353C305.038 202.254 305.674 202.089 306.072 201.861C306.48 201.632 306.683 201.234 306.683 200.668V200.548C306.683 199.077 306.281 197.933 305.475 197.118C304.68 196.303 303.472 195.895 301.851 195.895C300.171 195.895 298.853 196.263 297.899 196.999C296.944 197.734 296.273 198.52 295.885 199.355L292.544 198.162C293.141 196.77 293.936 195.686 294.931 194.911C295.935 194.125 297.029 193.578 298.212 193.27C299.405 192.952 300.578 192.793 301.732 192.793C302.468 192.793 303.313 192.882 304.267 193.061C305.232 193.23 306.161 193.583 307.056 194.12C307.961 194.657 308.712 195.467 309.308 196.551C309.905 197.635 310.203 199.087 310.203 200.906V216H306.683V212.898H306.504C306.266 213.395 305.868 213.927 305.311 214.494C304.754 215.06 304.014 215.543 303.089 215.94C302.164 216.338 301.036 216.537 299.703 216.537ZM300.24 213.375C301.632 213.375 302.806 213.102 303.76 212.555C304.725 212.008 305.45 211.302 305.938 210.437C306.435 209.572 306.683 208.662 306.683 207.707V204.486C306.534 204.665 306.206 204.829 305.699 204.978C305.202 205.117 304.625 205.241 303.969 205.351C303.323 205.45 302.691 205.54 302.075 205.619C301.468 205.689 300.976 205.749 300.598 205.798C299.683 205.918 298.828 206.112 298.033 206.38C297.247 206.638 296.611 207.031 296.124 207.558C295.646 208.075 295.408 208.781 295.408 209.676C295.408 210.899 295.86 211.824 296.765 212.45C297.68 213.067 298.838 213.375 300.24 213.375Z" fill="black"/>
</g>
<defs>
<filter id="filter0_d_0_1" x="86.6989" y="183.068" width="227.504" height="49.5227" filterUnits="userSpaceOnUse" color-interpolation-filters="sRGB">
<feFlood flood-opacity="0" result="BackgroundImageFix"/>
<feColorMatrix in="SourceAlpha" type="matrix" values="0 0 0 0 0 0 0 0 0 0 0 0 0 0 0 0 0 0 127 0" result="hardAlpha"/>
<feOffset dy="4"/>
<feGaussianBlur stdDeviation="2"/>
<feComposite in2="hardAlpha" operator="out"/>
<feColorMatrix type="matrix" values="0 0 0 0 0 0 0 0 0 0 0 0 0 0 0 0 0 0 0.69 0"/>
<feBlend mode="normal" in2="BackgroundImageFix" result="effect1_dropShadow_0_1"/>
<feBlend mode="normal" in="SourceGraphic" in2="effect1_dropShadow_0_1" result="shape"/>
</filter>
</defs>
</svg>
